<svg viewBox="0 0 106 29" fill="none" xmlns="http://www.w3.org/2000/svg">
<path d="M0.75 3.26758C0.75 1.52148 1.72266 0.648438 3.66797 0.648438C5.61328 0.648438 6.58594 1.52148 6.58594 3.26758C6.58594 4.09961 6.33984 4.75 5.84766 5.21875C5.36719 5.67578 4.64062 5.9043 3.66797 5.9043C1.72266 5.9043 0.75 5.02539 0.75 3.26758ZM6.33984 28H0.978516V8.34766H6.33984V28Z" fill="#E22713"/>
<path d="M17.8535 14.3945H19.6465C21.3223 14.3945 22.5762 14.0664 23.4082 13.4102C24.2402 12.7422 24.6562 11.7754 24.6562 10.5098C24.6562 9.23242 24.3047 8.28906 23.6016 7.67969C22.9102 7.07031 21.8203 6.76562 20.332 6.76562H17.8535V14.3945ZM30.1582 10.3164C30.1582 13.082 29.291 15.1973 27.5566 16.6621C25.834 18.127 23.3789 18.8594 20.1914 18.8594H17.8535V28H12.4043V2.30078H20.6133C23.7305 2.30078 26.0977 2.97461 27.7148 4.32227C29.3438 5.6582 30.1582 7.65625 30.1582 10.3164ZM39.9492 28H34.5879V0.648438H39.9492V28ZM49.8633 18.1387C49.8633 20.084 50.1797 21.5547 50.8125 22.5508C51.457 23.5469 52.5 24.0449 53.9414 24.0449C55.3711 24.0449 56.3965 23.5527 57.0176 22.5684C57.6504 21.5723 57.9668 20.0957 57.9668 18.1387C57.9668 16.1934 57.6504 14.7344 57.0176 13.7617C56.3848 12.7891 55.3477 12.3027 53.9062 12.3027C52.4766 12.3027 51.4453 12.7891 50.8125 13.7617C50.1797 14.7227 49.8633 16.1816 49.8633 18.1387ZM63.4512 18.1387C63.4512 21.3379 62.6074 23.8398 60.9199 25.6445C59.2324 27.4492 56.8828 28.3516 53.8711 28.3516C51.9844 28.3516 50.3203 27.9414 48.8789 27.1211C47.4375 26.2891 46.3301 25.0996 45.5566 23.5527C44.7832 22.0059 44.3965 20.2012 44.3965 18.1387C44.3965 14.9277 45.2344 12.4316 46.9102 10.6504C48.5859 8.86914 50.9414 7.97852 53.9766 7.97852C55.8633 7.97852 57.5273 8.38867 58.9688 9.20898C60.4102 10.0293 61.5176 11.207 62.291 12.7422C63.0645 14.2773 63.4512 16.0762 63.4512 18.1387ZM72.5566 28L65.0684 8.34766H70.6758L74.4727 19.5449C74.8945 20.9629 75.1582 22.3047 75.2637 23.5703H75.3691C75.4277 22.4453 75.6914 21.1035 76.1602 19.5449L79.9395 8.34766H85.5469L78.0586 28H72.5566ZM96.5156 11.793C95.3789 11.793 94.4883 12.1562 93.8438 12.8828C93.1992 13.5977 92.8301 14.6172 92.7363 15.9414H100.26C100.236 14.6172 99.8906 13.5977 99.2227 12.8828C98.5547 12.1562 97.6523 11.793 96.5156 11.793ZM97.2715 28.3516C94.1074 28.3516 91.6348 27.4785 89.8535 25.7324C88.0723 23.9863 87.1816 21.5137 87.1816 18.3145C87.1816 15.0215 88.002 12.4785 89.6426 10.6855C91.2949 8.88086 93.5742 7.97852 96.4805 7.97852C99.2578 7.97852 101.42 8.76953 102.967 10.3516C104.514 11.9336 105.287 14.1191 105.287 16.9082V19.5098H92.6133C92.6719 21.0332 93.123 22.2227 93.9668 23.0781C94.8105 23.9336 95.9941 24.3613 97.5176 24.3613C98.7012 24.3613 99.8203 24.2383 100.875 23.9922C101.93 23.7461 103.031 23.3535 104.18 22.8145V26.9629C103.242 27.4316 102.24 27.7773 101.174 28C100.107 28.2344 98.8066 28.3516 97.2715 28.3516Z" fill="#EFDB30"/>
</svg>
