<svg viewBox="0 0 566 240" fill="none" xmlns="http://www.w3.org/2000/svg">
<path d="M81.9738 39.37H40.016V80.64H81.9738V39.37ZM73.5762 72.37H48.4137V47.63H73.5762V72.37ZM75.8738 20.62L56.8723 0H68.4725L68.3302 0.14L79.5948 12.37H109.353V41.64L121.878 52.8L135.511 39.39H162.046V13.28L175.558 0H187.016L187.209 0.22L170.444 16.71V47.65H138.989L122.163 64.2L100.955 45.3V20.63L75.8738 20.62ZM162.057 200.68H204.014V159.41H162.057V200.68ZM170.454 167.68H195.617V192.43H170.454V167.68ZM230.55 80.68H204.014V106.78L190.381 120.19L201.646 132.42H231.393V161.69L243.919 172.86L244 172.78V184.08L222.996 165.35V140.67H197.914L178.781 119.9L195.607 103.35V72.4H227.062L243.827 55.91L243.99 56.06V67.43L230.55 80.68ZM65.27 120.16L48.5052 136.65V167.59H17.0495L0.2135 184.15L0 184V172.68L13.5725 159.33H40.1075V133.23L53.68 119.88L42.3238 107.57H12.566V78.29L0.142333 67.21L0 67.35V55.95L20.9637 74.63V99.31H46.055L65.27 120.16ZM168.096 219.35L187.128 240H175.639L175.721 239.92L164.364 227.6H134.607V198.33L122.183 187.25L108.6 200.6H82.0653V226.7L68.5538 240H56.9333L56.791 239.84L73.6168 223.28V192.34H105.123L121.888 175.85L142.994 194.67V219.35H168.096Z" fill="#EFDB30"/>
<path d="M142.913 20.63H100.955V0H109.353V12.37H134.515V0H142.913V20.63ZM244 55.63V67.26L243.929 67.33L223.88 47.62H203.974V80.69H170.363V100.26L190.401 120L170.363 139.72V167.6H142.008L122 187.29L101.961 167.57H82.0247V200.63H48.4137V220.2L68.4623 239.92L68.3912 239.99H56.5165L56.5877 239.92L40.016 223.63V200.63H16.6327L0 184.29V172.63L20.0385 192.35H40.077V159.35H73.627V139.69L53.5377 120L73.5762 100.28V72.38H101.931L122 52.66L142.049 72.38H162.057V39.38H195.607V19.73L175.487 0H187.361L203.933 16.3V39.3H227.316L243.878 55.6L244 55.63ZM73.627 167.63H48.4645V192.38H73.627V167.63ZM161.965 103.68V80.68H138.582L122 64.34L105.398 80.64H82.0145V103.64L65.4022 120L81.9637 136.3V159.3H105.347L122 175.61L138.572 159.31H161.955V136.31L178.527 120L161.965 103.68ZM195.576 47.68H170.414V72.43H195.576V47.68ZM48.373 47.59V19.71L68.4115 0H56.5368L39.9855 16.29V39.29H16.6022L0 55.61V67.29L20.0283 47.59H48.373ZM222.985 140.66H244V132.4H231.393V107.66H244V99.4H222.996L222.985 140.66ZM195.607 192.41V220.3L175.589 240H187.463L204.014 223.72V200.72H227.398L244 184.39V172.71L223.961 192.42L195.607 192.41ZM20.9637 99.31H0V107.57H12.566V132.32H0V140.58H20.9637V99.31ZM101.046 240H109.444V227.61H134.607V240H143.004V219.35H101.046V240Z" fill="#E22713"/>
<path d="M312.29 94.45L309.17 94.32C306.83 94.32 305.313 94.8833 304.62 96.01C304.447 96.27 304.23 96.4 303.97 96.4C302.843 96.4 302.28 94.4933 302.28 90.68C302.28 86.78 302.843 84.31 303.97 83.27C305.183 82.23 307.22 81.71 310.08 81.71C313.027 81.71 315.02 82.23 316.06 83.27C317.1 84.2233 317.62 85.87 317.62 88.21C317.62 90.55 317.23 92.1967 316.45 93.15C315.67 94.0167 314.283 94.45 312.29 94.45ZM301.89 160.1L303.32 129.81C303.32 122.617 302.497 117.72 300.85 115.12C300.33 114.253 299.723 113.603 299.03 113.17C298.51 112.997 298.25 112.65 298.25 112.13C298.25 110.57 300.46 109.053 304.88 107.58C309.3 106.107 312.507 105.37 314.5 105.37C316.58 105.37 317.663 105.89 317.75 106.93C317.75 108.663 317.49 113.603 316.97 121.75C316.537 129.81 316.32 138.303 316.32 147.23C316.32 156.157 316.84 161.703 317.88 163.87C318.14 164.303 318.27 164.737 318.27 165.17C318.27 166.297 316.623 166.86 313.33 166.86C310.037 166.86 306.657 165.993 303.19 164.26C302.323 163.827 301.89 162.44 301.89 160.1ZM355.705 109.53C356.052 109.53 356.702 109.877 357.655 110.57C358.608 111.263 359.605 111.61 360.645 111.61H360.775C363.722 111.61 366.062 110.44 367.795 108.1C369.528 105.76 370.482 103.42 370.655 101.08L371.045 97.57C371.045 94.2767 370.525 91.46 369.485 89.12C368.532 86.6933 367.405 84.9167 366.105 83.79C364.805 82.5767 363.288 81.6667 361.555 81.06C359.388 80.1933 357.092 79.76 354.665 79.76C352.325 79.76 350.418 80.02 348.945 80.54C347.472 80.9733 346.648 81.4067 346.475 81.84L346.345 82.62C345.565 94.32 345.175 104.807 345.175 114.08C345.175 123.267 345.305 131.197 345.565 137.87C345.912 144.543 346.215 149.7 346.475 153.34C346.822 156.893 346.995 158.843 346.995 159.19C346.995 161.357 345.088 163.09 341.275 164.39C337.462 165.69 333.692 166.34 329.965 166.34C328.232 166.34 327.365 165.907 327.365 165.04C327.365 164.78 327.495 164.173 327.755 163.22C329.402 159.407 330.225 141.683 330.225 110.05C330.225 91.4167 328.968 80.7567 326.455 78.07C325.935 77.55 325.675 77.03 325.675 76.51C325.675 75.9033 326.282 75.2533 327.495 74.56C328.795 73.8667 332.348 73.0867 338.155 72.22C343.962 71.2667 350.115 70.79 356.615 70.79C366.842 70.79 374.512 73.5633 379.625 79.11C384.825 84.6567 387.425 91.2867 387.425 99C387.425 106.627 385.302 113.257 381.055 118.89C376.895 124.523 371.435 127.34 364.675 127.34C362.508 127.34 360.342 126.95 358.175 126.17C353.842 124.61 351.675 121.36 351.675 116.42C351.675 115.38 352.022 113.993 352.715 112.26C353.408 110.44 354.405 109.53 355.705 109.53ZM408.11 89.64L407.33 137.35C407.33 152.257 407.807 161.183 408.76 164.13C409.02 164.65 409.15 165.17 409.15 165.69C409.15 166.73 407.893 167.25 405.38 167.25C402.867 167.25 400.05 166.6 396.93 165.3C393.897 164.087 392.38 162.483 392.38 160.49C394.113 148.357 394.98 132.15 394.98 111.87L394.46 91.98C394.287 89.5533 393.767 87.4733 392.9 85.74C392.12 84.0067 391.34 82.88 390.56 82.36L389.52 81.71C388.913 81.3633 388.61 80.9733 388.61 80.54C388.61 79.3267 390.473 77.8533 394.2 76.12C398.013 74.3 401.697 73.39 405.25 73.39C406.637 73.39 407.417 73.8667 407.59 74.82C407.937 77.0733 408.11 82.0133 408.11 89.64ZM429.706 114.99C427.453 115.077 425.806 115.163 424.766 115.25C423.813 115.25 423.336 114.99 423.336 114.47C423.336 113.95 423.596 113.43 424.116 112.91C429.663 107.797 439.023 105.24 452.196 105.24C456.703 105.24 460.256 105.63 462.856 106.41L464.156 106.8C465.196 107.233 465.716 107.71 465.716 108.23C465.716 108.663 465.413 109.01 464.806 109.27C462.466 109.963 460.213 111.09 458.046 112.65C455.88 114.123 454.796 115.163 454.796 115.77L455.576 116.68C458.35 118.24 460.473 120.71 461.946 124.09C463.506 127.47 464.373 130.46 464.546 133.06L464.806 137.09C464.806 145.67 462.423 152.733 457.656 158.28C452.89 163.827 446.39 166.6 438.156 166.6C433.996 166.6 430.4 165.863 427.366 164.39C424.333 162.917 422.08 161.27 420.606 159.45C419.22 157.543 418.093 155.42 417.226 153.08C416.186 149.873 415.666 146.58 415.666 143.2C415.666 139.733 416.23 136.267 417.356 132.8C418.57 129.333 419.913 126.777 421.386 125.13C422.946 123.483 424.68 122.14 426.586 121.1C429.013 119.8 430.963 119.15 432.436 119.15C433.91 119.15 434.646 119.453 434.646 120.06L433.866 121.36C431.96 123.613 430.573 126.56 429.706 130.2C428.926 133.84 428.536 137.09 428.536 139.95C428.536 142.723 428.883 145.497 429.576 148.27C430.27 151.043 431.05 153.123 431.916 154.51C432.783 155.81 433.78 156.807 434.906 157.5C436.553 158.54 438.286 159.06 440.106 159.06C441.926 159.06 443.703 158.367 445.436 156.98C447.17 155.507 448.426 153.6 449.206 151.26C450.766 146.927 451.546 142.463 451.546 137.87C451.546 130.59 449.683 124.957 445.956 120.97C442.316 116.983 436.9 114.99 429.706 114.99ZM500.806 107.84C504.533 106.02 508.216 105.11 511.856 105.11C515.496 105.11 517.316 108.88 517.316 116.42C517.316 121.967 516.276 127.6 514.196 133.32C512.203 139.04 509.69 144.067 506.656 148.4C500.416 157.5 494.783 163.567 489.756 166.6C488.543 167.293 487.633 167.64 487.026 167.64C486.42 167.64 485.77 166.99 485.076 165.69C484.47 164.39 483.473 161.53 482.086 157.11C480.786 152.69 479.703 148.747 478.836 145.28L477.666 139.95C475.933 132.323 474.243 126.257 472.596 121.75C470.95 117.157 469.736 114.513 468.956 113.82L467.656 112.65C466.79 112.217 466.356 111.697 466.356 111.09L467.006 109.92C468.133 108.88 469.996 107.84 472.596 106.8C475.283 105.673 478.23 105.11 481.436 105.11C482.91 105.11 483.82 105.933 484.166 107.58C485.466 111.567 486.593 116.247 487.546 121.62C488.5 126.993 489.756 133.06 491.316 139.82C492.963 146.58 494.306 150.003 495.346 150.09C495.866 150.09 496.43 149.7 497.036 148.92C497.73 148.14 498.51 147.1 499.376 145.8C500.33 144.5 501.456 141.987 502.756 138.26C504.143 134.533 504.836 131.37 504.836 128.77C504.836 126.083 504.706 124.047 504.446 122.66C504.273 121.187 503.536 119.497 502.236 117.59C500.936 115.683 499.463 114.6 497.816 114.34C496.17 113.993 495.346 113.43 495.346 112.65C495.346 111.263 497.166 109.66 500.806 107.84ZM534.18 130.98L534.31 134.23C534.31 134.75 534.656 135.01 535.35 135.01C538.123 134.75 540.55 134.057 542.63 132.93C544.71 131.717 546.27 130.373 547.31 128.9C549.39 125.693 550.516 122.92 550.69 120.58L550.82 119.02C550.82 114.34 548.956 112 545.23 112C542.456 112 540.203 113.213 538.47 115.64C535.61 119.453 534.18 124.567 534.18 130.98ZM562.52 148.27C562.52 151.563 561.826 154.467 560.44 156.98C559.14 159.407 557.623 161.227 555.89 162.44C554.243 163.567 552.293 164.477 550.04 165.17C547.18 166.037 544.45 166.47 541.85 166.47C534.57 166.47 529.196 163.74 525.73 158.28C522.263 152.82 520.53 145.887 520.53 137.48C520.53 128.987 522.653 121.447 526.9 114.86C531.233 108.273 537.69 104.98 546.27 104.98C554.07 104.98 559.356 107.71 562.13 113.17C563.256 115.25 563.82 117.243 563.82 119.15C563.82 120.97 563.733 122.443 563.56 123.57C563.386 124.61 562.78 126.213 561.74 128.38C560.7 130.547 559.313 132.497 557.58 134.23C555.846 135.963 553.116 137.61 549.39 139.17C545.663 140.73 541.286 141.77 536.26 142.29C535.566 142.29 535.22 142.593 535.22 143.2C535.22 143.98 535.48 145.15 536 146.71C536.606 148.183 537.256 149.44 537.95 150.48C539.856 152.907 542.673 154.12 546.4 154.12C550.126 154.12 553.29 152.907 555.89 150.48C557.276 149.18 558.403 147.577 559.27 145.67C559.616 144.977 560.05 144.63 560.57 144.63C561.176 144.63 561.653 145.107 562 146.06C562.346 147.013 562.52 147.75 562.52 148.27Z" fill="black"/>
</svg>
